#!OML:ASF F:\VICON\USERDATA\INSTALL\Justin_Nancy\Justin_Nancy.ASF
:FULLY-SPECIFIED
:DEGREES
32
root 0.752025 17.7533 -15.6519 5.6526 -3.1974 -1.11283
lowerback 4.33143 -0.084728 -0.31434
upperback -1.08565 -0.0330987 2.87106
thorax -3.54882 0.0218062 3.14522
lowerneck -16.0496 -4.59639 -10.8224
upperneck 19.6527 -4.99391 6.22518
head 9.27452 -2.48492 3.2948
rclavicle 3.47873e-016 -1.11319e-014
rhumerus -33.7842 -9.60045 -78.5585
rradius 33.0124
rwrist 4.88886
rhand -11.539 13.6673
rfingers 7.12502
rthumb 14.5013 -15.8059
lclavicle 3.47873e-016 -1.11319e-014
lhumerus -35.0576 12.8866 82.5871
lradius 30.6203
lwrist -4.52984
lhand -21.127 17.4491
lfingers 7.12502
lthumb 5.25171 47.364
rfemur -10.6775 5.46793 19.5187
rtibia 21.2129
rfoot -10.9634 -7.78507
rtoes 8.04551
lfemur -12.1933 -4.28593 -16.8978
ltibia 24.0185
lfoot -13.4159 9.82557
ltoes -2.48842
33
root 0.748458 17.7514 -15.6577 5.63964 -3.17797 -1.22692
lowerback 4.43453 -0.0970397 -0.250515
upperback -1.13107 -0.0416022 2.92442
thorax -3.65368 0.0180613 3.16652
lowerneck -15.9891 -4.54837 -10.8324
upperneck 19.738 -4.92956 6.20315
head 9.28669 -2.46019 3.2992
rclavicle 1.52567e-014 -6.36111e-015
rhumerus -33.8721 -9.49438 -78.5702
rradius 33.0388
rwrist 4.8808
rhand -11.5598 13.7156
rfingers 7.12502
rthumb 14.4812 -15.7591
lclavicle 1.52567e-014 -6.36111e-015
lhumerus -35.2091 12.8677 82.589
lradius 30.7276
lwrist -4.4807
lhand -20.8534 18.1031
lfingers 7.12502
lthumb 5.51585 48.0113
rfemur -10.6834 5.5351 19.6664
rtibia 21.2213
rfoot -10.9459 -7.81536
rtoes 8.00859
lfemur -12.2563 -4.22572 -16.7391
ltibia 24.0716
lfoot -13.4256 9.74644
ltoes -2.64413
34
root 0.748263 17.7487 -15.6612 5.56674 -3.22432 -1.26419
lowerback 4.61654 -0.0672595 -0.21113
upperback -1.16488 0.00402518 2.92756
thorax -3.79414 0.041419 3.14579
lowerneck -15.9937 -4.54563 -10.7818
upperneck 19.8364 -4.92734 6.13901
head 9.31853 -2.46336 3.26975
rclavicle -7.45443e-016 6.36111e-015
rhumerus -34.0074 -9.43909 -78.5762
rradius 33.1445
rwrist 4.83939
rhand -11.5615 13.5534
rfingers 7.12502
rthumb 14.4795 -15.9214
lclavicle -7.45443e-016 6.36111e-015
lhumerus -35.2798 12.8249 82.5828
lradius 30.7303
lwrist -4.44318
lhand -20.4111 18.4599
lfingers 7.12502
lthumb 5.94292 48.3565
rfemur -10.6313 5.61028 19.707
rtibia 21.2593
rfoot -10.9756 -7.81639
rtoes 8.34204
lfemur -12.2246 -4.13644 -16.707
ltibia 24.1112
lfoot -13.4197 9.74256
ltoes -3.0965
35
root 0.750186 17.7468 -15.6638 5.53618 -3.21715 -1.18209
lowerback 4.69736 -0.0722617 -0.273881
upperback -1.18346 -0.00528398 2.91691
thorax -3.85858 0.0388369 3.1717
lowerneck -16.0218 -4.55499 -10.8502
upperneck 19.9234 -4.9258 6.15283
head 9.35631 -2.46698 3.2868
rclavicle 1.11816e-014 1.03368e-014
rhumerus -34.0337 -9.27158 -78.6181
rradius 33.2168
rwrist 4.76294
rhand -11.6834 13.1459
rfingers 7.12502
rthumb 14.3621 -16.3372
lclavicle 1.11816e-014 1.03368e-014
lhumerus -35.2869 12.863 82.5784
lradius 30.6582
lwrist -4.4891
lhand -20.759 17.8129
lfingers 7.12502
lthumb 5.60704 47.7187
rfemur -10.635 5.51153 19.6138
rtibia 21.3064
rfoot -10.9402 -7.79465
rtoes 8.21475
lfemur -12.2221 -4.1726 -16.8033
ltibia 24.1427
lfoot -13.4438 9.72044
ltoes -3.04088
36
root 0.751679 17.7442 -15.6688 5.55478 -3.28733 -1.19452
lowerback 4.72923 -0.0464068 -0.258537
upperback -1.19088 0.0310981 2.92477
thorax -3.88639 0.0569845 3.16864
lowerneck -15.9506 -4.54052 -10.8519
upperneck 19.8681 -4.90715 6.13519
head 9.32185 -2.46081 3.28355
rclavicle 4.32357e-015 1.03368e-014
rhumerus -33.9934 -9.17811 -78.6524
rradius 33.2119
rwrist 4.73164
rhand -11.8438 13.1583
rfingers 7.12502
rthumb 14.2075 -16.3358
lclavicle 4.32357e-015 1.03368e-014
lhumerus -35.2742 12.8157 82.6224
lradius 30.6395
lwrist -4.46735
lhand -21.2231 17.3533
lfingers 7.12502
lthumb 5.15893 47.2705
rfemur -10.7108 5.51485 19.6023
rtibia 21.3263
rfoot -10.8797 -7.71151
rtoes 8.62576
lfemur -12.2784 -4.11545 -16.8009
ltibia 24.1963
lfoot -13.4512 9.73531
ltoes -2.53674
37
root 0.751476 17.7451 -15.6714 5.5714 -3.38609 -1.22517
lowerback 4.73551 -0.00682494 -0.227061
upperback -1.20715 0.0858568 2.91034
thorax -3.90983 0.0836427 3.13162
lowerneck -15.8046 -4.53211 -10.7798
upperneck 19.8033 -4.92242 6.10857
head 9.27107 -2.46701 3.26115
rclavicle 3.77691e-015 7.15625e-015
rhumerus -34.0228 -9.20688 -78.6556
rradius 33.2664
rwrist 4.60204
rhand -11.4547 13.1765
rfingers 7.12502
rthumb 14.5825 -16.2909
lclavicle 3.77691e-015 7.15625e-015
lhumerus -35.292 12.6836 82.6407
lradius 30.6761
lwrist -4.44979
lhand -21.3329 17.4273
lfingers 7.12502
lthumb 5.05296 47.347
rfemur -10.771 5.59665 19.6258
rtibia 21.3496
rfoot -10.8329 -7.67452
rtoes 8.89184
lfemur -12.297 -4.05095 -16.7734
ltibia 24.2332
lfoot -13.4614 9.7618
ltoes -2.13087
38
root 0.749187 17.7498 -15.6728 5.66721 -3.25832 -1.22444
lowerback 4.58536 -0.0352636 -0.222684
upperback -1.16735 0.045031 2.90932
thorax -3.78136 0.0617989 3.12993
lowerneck -15.9695 -4.59885 -10.7325
upperneck 19.9074 -4.99176 6.01852
head 9.34066 -2.50376 3.2115
rclavicle -1.98785e-015 -7.95139e-015
rhumerus -33.9299 -9.20216 -78.7073
rradius 33.432
rwrist 4.3644
rhand -11.354 12.5639
rfingers 7.12502
rthumb 14.6795 -16.8964
lclavicle -1.98785e-015 -7.95139e-015
lhumerus -35.1586 12.6109 82.6898
lradius 30.7234
lwrist -4.50463
lhand -21.243 17.3717
lfingers 7.12502
lthumb 5.1397 47.2893
rfemur -10.8628 5.64761 19.6445
rtibia 21.3533
rfoot -10.8435 -7.78839
rtoes 8.65692
lfemur -12.428 -4.11038 -16.7401
ltibia 24.2855
lfoot -13.5518 9.68229
ltoes -2.26132
39
root 0.748718 17.7512 -15.6736 5.6839 -3.21058 -1.12732
lowerback 4.52811 -0.0502669 -0.354433
upperback -1.13241 0.0160512 2.92365
thorax -3.71135 0.0496463 3.22082
lowerneck -16.0426 -4.64246 -10.755
upperneck 19.9481 -5.01904 5.92988
head 9.36965 -2.52689 3.17978
rclavicle 4.96962e-016 1.66979e-014
rhumerus -33.886 -9.24562 -78.6012
rradius 33.3115
rwrist 4.60484
rhand -11.4575 13.1026
rfingers 7.12502
rthumb 14.5797 -16.3649
lclavicle 4.96962e-016 1.66979e-014
lhumerus -35.0332 12.5781 82.7968
lradius 30.7014
lwrist -4.35886
lhand -21.1989 17.4909
lfingers 7.12502
lthumb 5.18226 47.4075
rfemur -10.8897 5.58877 19.5451
rtibia 21.3489
rfoot -10.7999 -7.77919
rtoes 8.01718
lfemur -12.4448 -4.17637 -16.8278
ltibia 24.3209
lfoot -13.694 9.58811
ltoes -1.91729
